<svg width="19" height="16" viewBox="0 0 19 16" fill="none" xmlns="http://www.w3.org/2000/svg">
<path fill-rule="evenodd" clip-rule="evenodd" d="M13.4452 10.2L16.8253 13.0707C17.1257 13.3259 17.1257 13.7086 16.8253 13.9638C16.675 14.0914 16.4497 14.1552 16.2995 14.1552C16.1493 14.1552 15.9239 14.0914 15.7737 13.9638L12.3936 11.0931C11.267 11.7948 9.91493 12.2414 8.41268 12.2414C4.88241 12.2414 2.02814 9.81723 2.02814 6.81896C2.02814 3.82068 4.88241 1.39655 8.41268 1.39655C11.943 1.39655 14.7972 3.82068 14.7972 6.81896C14.7972 8.09482 14.2714 9.30689 13.4452 10.2ZM8.41268 2.67241C5.70864 2.67241 3.53038 4.52241 3.53038 6.81896C3.53038 9.11551 5.70864 10.9655 8.41268 10.9655C9.7647 10.9655 10.9665 10.519 11.8679 9.75344C12.7692 8.98792 13.295 7.96723 13.295 6.81896C13.295 4.52241 11.1167 2.67241 8.41268 2.67241Z" fill="black"/>
<mask id="mask0_1683_84185" style="mask-type:luminance" maskUnits="userSpaceOnUse" x="2" y="1" width="16" height="14">
<path fill-rule="evenodd" clip-rule="evenodd" d="M13.4452 10.2L16.8253 13.0707C17.1257 13.3259 17.1257 13.7086 16.8253 13.9638C16.675 14.0914 16.4497 14.1552 16.2995 14.1552C16.1493 14.1552 15.9239 14.0914 15.7737 13.9638L12.3936 11.0931C11.267 11.7948 9.91493 12.2414 8.41268 12.2414C4.88241 12.2414 2.02814 9.81723 2.02814 6.81896C2.02814 3.82068 4.88241 1.39655 8.41268 1.39655C11.943 1.39655 14.7972 3.82068 14.7972 6.81896C14.7972 8.09482 14.2714 9.30689 13.4452 10.2ZM8.41268 2.67241C5.70864 2.67241 3.53038 4.52241 3.53038 6.81896C3.53038 9.11551 5.70864 10.9655 8.41268 10.9655C9.7647 10.9655 10.9665 10.519 11.8679 9.75344C12.7692 8.98792 13.295 7.96723 13.295 6.81896C13.295 4.52241 11.1167 2.67241 8.41268 2.67241Z" fill="white"/>
</mask>
<g mask="url(#mask0_1683_84185)">
<rect x="0.525879" y="0.120697" width="18.027" height="15.3103" fill="#6E6B7B"/>
</g>
</svg>
