<svg width="16" height="17" viewBox="0 0 16 17" fill="none" xmlns="http://www.w3.org/2000/svg">
<path d="M14.31 5.37101H12.11L12.98 2.13101C13.0123 2.01609 13.0215 1.89588 13.0069 1.7774C12.9923 1.65891 12.9543 1.54451 12.8951 1.44086C12.8358 1.3372 12.7566 1.24637 12.6619 1.17364C12.5672 1.10091 12.4591 1.04774 12.3436 1.01723C12.2282 0.986716 12.1079 0.97947 11.9897 0.995913C11.8714 1.01236 11.7576 1.05216 11.6549 1.113C11.5522 1.17385 11.4626 1.25452 11.3914 1.35032C11.3202 1.44611 11.2687 1.55513 11.24 1.67101L10.25 5.38101H6.86L7.73 2.14101C7.76232 2.02609 7.77146 1.90588 7.75688 1.7874C7.74229 1.66891 7.70428 1.55451 7.64506 1.45086C7.58584 1.3472 7.50658 1.25637 7.41192 1.18364C7.31725 1.11091 7.20906 1.05774 7.09364 1.02723C6.97823 0.996716 6.8579 0.98947 6.73965 1.00591C6.62141 1.02236 6.50762 1.06216 6.40491 1.123C6.3022 1.18385 6.21262 1.26452 6.14139 1.36032C6.07016 1.45611 6.01869 1.56513 5.99 1.68101L5 5.39101H2.31C1.81 5.39101 1.41 5.79101 1.41 6.29101C1.41 6.79101 1.81 7.19101 2.31 7.19101H4.51L3.59 10.641H0.9C0.4 10.641 0 11.041 0 11.541C0 12.041 0.4 12.441 0.9 12.441H3.1L2.23 15.681C2.19768 15.7959 2.18854 15.9161 2.20313 16.0346C2.21771 16.1531 2.25572 16.2675 2.31494 16.3712C2.37416 16.4748 2.45342 16.5656 2.54808 16.6384C2.64275 16.7111 2.75094 16.7643 2.86636 16.7948C2.98177 16.8253 3.1021 16.8325 3.22035 16.8161C3.33859 16.7997 3.45238 16.7599 3.55509 16.699C3.6578 16.6382 3.74738 16.5575 3.81861 16.4617C3.88984 16.3659 3.94131 16.2569 3.97 16.141L4.96 12.431H8.35L7.48 15.671C7.44768 15.7859 7.43854 15.9061 7.45312 16.0246C7.46771 16.1431 7.50572 16.2575 7.56494 16.3612C7.62416 16.4648 7.70342 16.5556 7.79808 16.6284C7.89275 16.7011 8.00094 16.7543 8.11636 16.7848C8.23177 16.8153 8.3521 16.8225 8.47035 16.8061C8.58859 16.7897 8.70238 16.7499 8.80509 16.689C8.9078 16.6282 8.99738 16.5475 9.06861 16.4517C9.13984 16.3559 9.19131 16.2469 9.22 16.131L10.21 12.421H12.9C13.4 12.421 13.8 12.021 13.8 11.521C13.8 11.021 13.4 10.621 12.9 10.621H10.7L11.62 7.17101H14.3C14.8 7.17101 15.2 6.77101 15.2 6.27101C15.2 5.77101 14.8 5.37101 14.3 5.37101H14.31ZM8.84 10.621H5.45L6.37 7.17101H9.76L8.84 10.621Z" fill="#202333"/>
</svg>
