<svg width="174" height="33" viewBox="0 0 174 33" fill="none" xmlns="http://www.w3.org/2000/svg">
<path d="M14.7239 33C11.8308 33 9.0582 32.6716 6.40618 32.0149C3.75416 31.3284 1.61876 30.4478 0 29.3731L2.84145 23.9104C4.39133 24.8657 6.21675 25.6567 8.3177 26.2836C10.4531 26.8806 12.6057 27.1791 14.7755 27.1791C16.4287 27.1791 17.7548 27.0448 18.7536 26.7761C19.7868 26.4776 20.5445 26.0746 21.0267 25.5672C21.5089 25.0597 21.75 24.4776 21.75 23.8209C21.75 22.9851 21.3711 22.3284 20.6134 21.8507C19.8557 21.3433 18.8569 20.9403 17.617 20.6418C16.3771 20.3134 14.9994 20.0149 13.484 19.7463C12.003 19.4478 10.5048 19.0896 8.98931 18.6716C7.50831 18.2537 6.14786 17.7164 4.90796 17.0597C3.66805 16.403 2.65202 15.5373 1.85986 14.4627C1.10214 13.3881 0.723278 12.0149 0.723278 10.3433C0.723278 8.55224 1.27435 6.92537 2.37648 5.46268C3.51306 3.97015 5.20071 2.79104 7.43943 1.92537C9.71259 1.02985 12.554 0.582089 15.9638 0.582089C18.2369 0.582089 20.4757 0.820895 22.6799 1.29851C24.8842 1.74627 26.8302 2.43283 28.5178 3.35821L25.9347 8.86567C24.247 8.02985 22.5594 7.41791 20.8717 7.02985C19.1841 6.61194 17.5309 6.40298 15.9121 6.40298C14.2933 6.40298 12.9673 6.56716 11.9341 6.89552C10.9008 7.22388 10.1603 7.65672 9.71259 8.19403C9.26485 8.70149 9.04097 9.29851 9.04097 9.98507C9.04097 10.791 9.41983 11.4478 10.1776 11.9552C10.9353 12.4328 11.9341 12.8209 13.174 13.1194C14.4139 13.4179 15.7743 13.7164 17.2553 14.0149C18.7708 14.3134 20.269 14.6567 21.75 15.0448C23.2654 15.4328 24.6431 15.9552 25.883 16.6119C27.1229 17.2687 28.1217 18.1343 28.8795 19.209C29.6716 20.2836 30.0677 21.6418 30.0677 23.2836C30.0677 25.0448 29.4994 26.6567 28.3628 28.1194C27.2262 29.5821 25.5214 30.7612 23.2482 31.6567C21.0095 32.5522 18.1681 33 14.7239 33Z" fill="#202122"/>
<path d="M31.0335 32.4627L47.1523 1.1194H55.4183L71.5888 32.4627H62.8061L49.5805 4.79104H52.8869L39.6096 32.4627H31.0335ZM39.0929 25.7463L41.3144 20.2388H59.913L62.1862 25.7463H39.0929Z" fill="#202122"/>
<path d="M84.2223 32.4627L68.6202 1.1194H77.6612L91.3001 28.8806H85.9789L99.8245 1.1194H108.142L92.4884 32.4627H84.2223Z" fill="#202122"/>
<path d="M110.135 22.3337C109.898 22.2449 109.682 22.1813 109.487 22.0876C109.111 21.9077 109.013 21.6665 109.148 21.3159C109.21 21.1543 109.293 20.9981 109.344 20.8339C109.479 20.3993 109.332 20.074 108.87 19.8575C108.598 19.7299 108.3 19.6383 108.007 19.5489C106.999 19.2414 106.792 18.859 107.346 18.0684C108.308 16.6935 109.321 15.345 110.328 13.9938C110.49 13.7762 110.537 13.6222 110.328 13.4014C109.909 12.9614 109.831 12.4288 109.966 11.8951C110.5 9.77806 111.141 7.69227 112.435 5.79981C114.32 3.04138 117.142 1.37458 120.674 0.529597C123.482 -0.141971 126.318 -0.118813 129.171 0.286712C131.177 0.571603 133.093 1.06868 134.804 2.03968C138.247 3.99407 140.251 6.74281 140.747 10.2606C141.258 13.8925 139.908 17.0506 137.244 19.837C136.859 20.2388 136.458 20.6287 136.074 21.0304C135.244 21.8997 134.902 22.9299 134.704 24.0199C134.274 26.3857 134.463 28.6891 135.561 30.9095C135.674 31.1384 135.843 31.3463 135.974 31.5698C136.037 31.6786 136.113 31.8035 136.103 31.9155C136.096 31.9915 135.957 32.068 135.862 32.125C135.82 32.1504 135.741 32.1299 135.678 32.1299C130.004 32.1299 124.329 32.1272 118.655 32.1369C118.348 32.1374 118.231 32.0604 118.196 31.8084C118.086 31.0253 117.963 30.2434 117.839 29.4619C117.796 29.1959 117.762 28.9261 117.676 28.6692C117.524 28.2125 117.195 27.9782 116.643 28.0009C115.979 28.0278 115.318 28.1145 114.657 28.1877C113.716 28.2917 112.78 28.4252 111.826 28.2761C110.386 28.0504 109.613 27.1446 109.87 25.9043C109.959 25.4761 110.135 25.0577 110.308 24.6462C110.498 24.1939 110.463 24.0172 110.033 23.7043C109.889 23.6004 109.74 23.5008 109.607 23.3877C109.27 23.1001 109.281 22.9197 109.651 22.6536C109.8 22.5448 109.96 22.4479 110.135 22.3337ZM131.072 3.9079C131.055 3.87774 131.008 3.7905 130.959 3.70487C130.549 2.99829 129.57 2.68971 128.753 3.04138C128.486 3.15663 128.285 3.13724 128.065 3.00368C127.938 2.92667 127.804 2.85612 127.687 2.7678C126.894 2.16947 125.718 2.20501 125.017 2.87981C124.817 3.07207 124.612 3.1157 124.356 3.06669C124.205 3.03815 124.06 2.98321 123.919 2.92774C122.962 2.55076 121.84 2.83619 121.288 3.60147C121.055 3.92406 121.055 3.92405 120.641 3.78296C119.018 3.22879 117.326 3.91167 116.762 5.33612C116.72 5.44114 116.586 5.544 116.466 5.59678C116.057 5.77504 115.753 6.03193 115.712 6.4283C115.682 6.71373 115.522 6.81497 115.239 6.9103C114.214 7.25443 113.612 7.91199 113.531 8.85606C113.446 9.83353 113.945 10.5751 114.95 11.0442C115.139 11.1325 115.208 11.2192 115.208 11.4088C115.209 12.5273 115.796 13.368 116.956 13.8549C118.117 14.3422 119.243 14.2103 120.278 13.5382C120.345 13.4951 120.413 13.4547 120.501 13.4009C120.501 13.4579 120.505 13.4763 120.5 13.4924C120.226 14.5119 120.53 15.3913 121.449 16.0672C122.368 16.7436 123.423 16.8572 124.555 16.4765C124.651 16.4442 124.819 16.4781 124.906 16.5352C125.378 16.8449 125.656 17.2735 125.839 17.7512C126.136 18.5262 126.427 19.3022 126.725 20.0767C126.846 20.389 127.079 20.4903 127.545 20.4704C127.896 20.4553 127.986 20.2555 128.043 20.0088C128.128 19.6394 128.224 19.2721 128.321 18.9048C128.365 18.7368 128.424 18.572 128.495 18.3415C128.646 18.4955 128.748 18.593 128.841 18.6969C129.727 19.6873 131.256 19.7767 132.28 18.893C132.853 18.3991 133.176 17.8002 133.244 17.1734C133.644 17.2272 134.037 17.3317 134.424 17.3177C134.8 17.3042 135.181 17.1949 135.54 17.0829C136.165 16.8874 136.466 16.4743 136.499 15.9067C136.537 15.2518 136.201 14.7111 135.796 14.1785C136.814 14.053 137.412 13.5016 137.732 12.7142C138.241 11.4659 138.249 10.2827 136.998 9.30844C137.294 8.78228 137.28 8.73489 136.792 8.28467C136.741 8.23781 136.736 8.12526 136.757 8.05363C136.994 7.26412 136.541 6.56563 135.634 6.33136C135.567 6.31412 135.503 6.2872 135.44 6.26512C135.44 6.22311 135.436 6.19618 135.44 6.17033C135.646 4.98607 134.335 4.20033 133.309 4.44968C133.207 4.47445 133.017 4.37966 132.937 4.29296C132.712 4.05115 132.455 3.84327 132.095 3.8255C131.776 3.80935 131.45 3.87397 131.072 3.9079Z" fill="#202122"/>
<path d="M127.534 11.3427C126.904 11.3427 126.34 11.3427 125.745 11.3427C125.638 10.6521 125.8 10.0276 126.385 9.51386C126.675 9.25834 127.024 9.04874 127.345 8.81697C127.665 8.58626 127.864 8.31279 127.848 7.94533C127.827 7.44114 127.604 7.14338 127.125 7.02301C126.552 6.87941 125.936 7.02301 125.66 7.43059C125.473 7.70617 125.393 8.03139 125.249 8.37508C124.696 8.37508 124.062 8.37508 123.427 8.37508C123.254 7.45487 124.08 6.29814 125.26 5.91854C126.473 5.52839 127.686 5.59069 128.799 6.17196C130.239 6.92428 130.338 8.6021 129.024 9.5239C128.903 9.60942 128.771 9.68598 128.64 9.76147C127.981 10.1411 127.367 10.5418 127.534 11.3427Z" fill="#202122"/>
<path d="M125.585 14.1784C125.585 13.5359 125.585 12.9244 125.585 12.288C126.314 12.288 127.032 12.288 127.767 12.288C127.767 12.9189 127.767 13.5384 127.767 14.1784C127.038 14.1784 126.33 14.1784 125.585 14.1784Z" fill="#202122"/>
<path d="M147.497 32.4627V1.1194H155.866V26.5522H174V32.4627H147.497Z" fill="#202122"/>
</svg>
