<svg width="22" height="21" viewBox="0 0 22 21" fill="none" xmlns="http://www.w3.org/2000/svg">
<path d="M8.954 20.85C8.614 20.85 8.264 20.79 7.924 20.65C7.40683 20.4569 6.96012 20.112 6.64246 19.6605C6.32481 19.209 6.15106 18.672 6.144 18.12L6.044 14.33L2.574 12.64C2.07507 12.4033 1.6587 12.0222 1.37879 11.5462C1.09887 11.0702 0.968309 10.5211 1.004 9.97C1.064 8.82 1.784 7.88 2.874 7.5L6.464 6.24L6.964 2.43C7.114 1.29 7.894 0.399997 9.004 0.0999971C10.114 -0.200003 11.244 0.179997 11.944 1.1L14.284 4.15L18.024 3.44C18.5656 3.33221 19.1271 3.38998 19.6355 3.60579C20.1438 3.82161 20.5754 4.18547 20.874 4.65C21.504 5.61 21.494 6.8 20.854 7.75L18.694 10.95L20.504 14.29C21.044 15.3 20.944 16.48 20.224 17.37C19.504 18.26 18.374 18.62 17.274 18.3L13.594 17.25L10.934 20C10.394 20.56 9.684 20.86 8.944 20.86L8.954 20.85ZM9.754 1.8C9.634 1.8 9.534 1.82 9.484 1.83C9.334 1.87 8.834 2.05 8.754 2.66L8.104 7.57L3.464 9.19C2.884 9.39 2.814 9.91 2.804 10.07C2.804 10.22 2.804 10.75 3.364 11.02L7.814 13.19L7.944 18.08C7.964 18.69 8.434 18.92 8.574 18.98C8.724 19.04 9.224 19.18 9.644 18.74L13.054 15.21L17.774 16.56C18.364 16.73 18.724 16.35 18.824 16.23C18.924 16.11 19.214 15.67 18.924 15.14L16.594 10.84L19.364 6.74C19.704 6.23 19.454 5.77 19.364 5.64C19.274 5.51 18.954 5.1 18.354 5.21L13.524 6.12L10.514 2.19C10.4265 2.06785 10.3108 1.96861 10.1768 1.90072C10.0427 1.83282 9.89425 1.79827 9.744 1.8H9.754V1.8Z" fill="white"/>
</svg>
